<svg width="96" height="96" viewBox="0 0 96 96" fill="none" xmlns="http://www.w3.org/2000/svg">
<path d="M85.1232 73.6959C83.7319 76.9101 82.085 79.8688 80.1769 82.5889C77.576 86.2972 75.4465 88.8641 73.8053 90.2894C71.2612 92.6291 68.5353 93.8274 65.6164 93.8955C63.5209 93.8955 60.9938 93.2992 58.0522 92.0896C55.1009 90.8857 52.3887 90.2894 49.9087 90.2894C47.3078 90.2894 44.5184 90.8857 41.5347 92.0896C38.5465 93.2992 36.1392 93.9296 34.2987 93.992C31.4996 94.1113 28.7096 92.879 25.9247 90.2894C24.1472 88.7391 21.924 86.0814 19.2606 82.3164C16.403 78.2957 14.0537 73.6334 12.2131 68.318C10.242 62.5767 9.25391 57.0171 9.25391 51.6347C9.25391 45.4692 10.5862 40.1516 13.2546 35.6954C15.3518 32.116 18.1419 29.2925 21.6338 27.2197C25.1257 25.1469 28.8987 24.0907 32.9619 24.0231C35.1852 24.0231 38.1007 24.7108 41.7238 26.0624C45.3367 27.4185 47.6565 28.1062 48.6736 28.1062C49.434 28.1062 52.011 27.3021 56.3798 25.6989C60.5111 24.2122 63.9979 23.5966 66.8544 23.8391C74.5946 24.4638 80.4098 27.515 84.2771 33.0121C77.3546 37.2065 73.9302 43.0813 73.9984 50.6177C74.0608 56.4879 76.1904 61.3728 80.3757 65.2515C82.2724 67.0516 84.3906 68.443 86.7473 69.4311C86.2363 70.9133 85.6968 72.333 85.1232 73.6959V73.6959ZM67.3712 3.84052C67.3712 8.44157 65.6902 12.7376 62.3397 16.7139C58.2964 21.4409 53.4057 24.1725 48.1023 23.7414C48.0347 23.1895 47.9955 22.6085 47.9955 21.998C47.9955 17.581 49.9184 12.854 53.3331 8.98895C55.0378 7.03203 57.206 5.40487 59.8353 4.10686C62.459 2.82821 64.9406 2.12109 67.2746 2C67.3428 2.61509 67.3712 3.23022 67.3712 3.84046V3.84052Z" fill="black"/>
</svg>
