<svg width="96" height="96" viewBox="0 0 96 96" fill="none" xmlns="http://www.w3.org/2000/svg">
<path d="M64 40C64 31.1634 56.8366 24 48 24C39.1634 24 32 31.1634 32 40V64C32 72.8366 39.1634 80 48 80C56.8366 80 64 72.8366 64 64V40Z" stroke="black" stroke-width="8" stroke-linecap="round" stroke-linejoin="round"/>
<path d="M76 28L64 36" stroke="black" stroke-width="8" stroke-linecap="round" stroke-linejoin="round"/>
<path d="M20 28L32 36" stroke="black" stroke-width="8" stroke-linecap="round" stroke-linejoin="round"/>
<path d="M76 76L64 68" stroke="black" stroke-width="8" stroke-linecap="round" stroke-linejoin="round"/>
<path d="M20 76L32 68" stroke="black" stroke-width="8" stroke-linecap="round" stroke-linejoin="round"/>
<path d="M80 52H64" stroke="black" stroke-width="8" stroke-linecap="round" stroke-linejoin="round"/>
<path d="M16 52H32" stroke="black" stroke-width="8" stroke-linecap="round" stroke-linejoin="round"/>
<path d="M40 16L44 24" stroke="black" stroke-width="8" stroke-linecap="round" stroke-linejoin="round"/>
<path d="M56 16L52 24" stroke="black" stroke-width="8" stroke-linecap="round" stroke-linejoin="round"/>
</svg>
