<svg width="96" height="96" viewBox="0 0 96 96" fill="none" xmlns="http://www.w3.org/2000/svg">
<path d="M8 48C8 26 26 8 48 8C54.2098 8 60.3343 9.4458 65.8885 12.2229C71.4428 15 76.2741 19.0322 80 24" stroke="black" stroke-width="8" stroke-linecap="round" stroke-linejoin="round"/>
<path d="M20 78C22 72 24 60 24 48C24 45.2 24.48 42.52 25.36 40" stroke="black" stroke-width="8" stroke-linecap="round" stroke-linejoin="round"/>
<path d="M69.1602 84.08C69.6402 81.68 70.8802 74.88 71.1602 72" stroke="black" stroke-width="8" stroke-linecap="round" stroke-linejoin="round"/>
<path d="M48 40C45.8782 40 43.8434 40.8429 42.3431 42.3431C40.8428 43.8434 40 45.8783 40 48C40 52.08 39.6 58.04 38.96 64" stroke="black" stroke-width="8" stroke-linecap="round" stroke-linejoin="round"/>
<path d="M34.5996 88C35.4396 85.36 36.3996 82.72 36.8796 80" stroke="black" stroke-width="8" stroke-linecap="round" stroke-linejoin="round"/>
<path d="M56 52.48C56 62 56 78 52 88" stroke="black" stroke-width="8" stroke-linecap="round" stroke-linejoin="round"/>
<path d="M8 64H8.04" stroke="black" stroke-width="8" stroke-linecap="round" stroke-linejoin="round"/>
<path d="M87.2002 64C88.0002 56 87.7242 42.584 87.2002 40" stroke="black" stroke-width="8" stroke-linecap="round" stroke-linejoin="round"/>
<path d="M36 27.1998C39.6496 25.0927 43.7897 23.9837 48.0038 23.9844C52.218 23.9851 56.3578 25.0954 60.0067 27.2036C63.6556 29.3119 66.685 32.3438 68.7904 35.9944C70.8957 39.645 72.0027 43.7856 72 47.9998C72 49.8798 72 52.6798 71.92 55.9998" stroke="black" stroke-width="8" stroke-linecap="round" stroke-linejoin="round"/>
</svg>
