<svg width="96" height="96" viewBox="0 0 96 96" fill="none" xmlns="http://www.w3.org/2000/svg">
<path d="M48.88 8H47.12C44.9983 8 42.9634 8.84285 41.4632 10.3431C39.9629 11.8434 39.12 13.8783 39.12 16V16.72C39.1186 18.1229 38.7482 19.5008 38.0462 20.7153C37.3441 21.9299 36.335 22.9385 35.12 23.64L33.4 24.64C32.1839 25.3421 30.8043 25.7118 29.4 25.7118C27.9957 25.7118 26.6162 25.3421 25.4 24.64L24.8 24.32C22.9643 23.2611 20.7834 22.9738 18.736 23.5212C16.6887 24.0687 14.9422 25.4061 13.88 27.24L13 28.76C11.9411 30.5957 11.6538 32.7767 12.2012 34.824C12.7487 36.8713 14.0862 38.6178 15.92 39.68L16.52 40.08C17.7291 40.778 18.7345 41.7804 19.4362 42.9873C20.1379 44.1943 20.5116 45.5639 20.52 46.96V49C20.5256 50.4097 20.1586 51.7958 19.4562 53.018C18.7538 54.2403 17.7408 55.2552 16.52 55.96L15.92 56.32C14.0862 57.3822 12.7487 59.1287 12.2012 61.176C11.6538 63.2233 11.9411 65.4043 13 67.24L13.88 68.76C14.9422 70.5939 16.6887 71.9313 18.736 72.4788C20.7834 73.0262 22.9643 72.7389 24.8 71.68L25.4 71.36C26.6162 70.6579 27.9957 70.2882 29.4 70.2882C30.8043 70.2882 32.1839 70.6579 33.4 71.36L35.12 72.36C36.335 73.0615 37.3441 74.0701 38.0462 75.2847C38.7482 76.4992 39.1186 77.8771 39.12 79.28V80C39.12 82.1217 39.9629 84.1566 41.4632 85.6569C42.9634 87.1571 44.9983 88 47.12 88H48.88C51.0017 88 53.0366 87.1571 54.5369 85.6569C56.0372 84.1566 56.88 82.1217 56.88 80V79.28C56.8814 77.8771 57.2518 76.4992 57.9539 75.2847C58.6559 74.0701 59.6651 73.0615 60.88 72.36L62.6 71.36C63.8162 70.6579 65.1957 70.2882 66.6 70.2882C68.0043 70.2882 69.3839 70.6579 70.6 71.36L71.2 71.68C73.0357 72.7389 75.2167 73.0262 77.264 72.4788C79.3113 71.9313 81.0578 70.5939 82.12 68.76L83 67.2C84.059 65.3643 84.3462 63.1833 83.7988 61.136C83.2513 59.0887 81.9139 57.3422 80.08 56.28L79.48 55.96C78.2592 55.2552 77.2463 54.2403 76.5438 53.018C75.8414 51.7958 75.4744 50.4097 75.48 49V47C75.4744 45.5903 75.8414 44.2042 76.5438 42.982C77.2463 41.7597 78.2592 40.7448 79.48 40.04L80.08 39.68C81.9139 38.6178 83.2513 36.8713 83.7988 34.824C84.3462 32.7767 84.059 30.5957 83 28.76L82.12 27.24C81.0578 25.4061 79.3113 24.0687 77.264 23.5212C75.2167 22.9738 73.0357 23.2611 71.2 24.32L70.6 24.64C69.3839 25.3421 68.0043 25.7118 66.6 25.7118C65.1957 25.7118 63.8162 25.3421 62.6 24.64L60.88 23.64C59.6651 22.9385 58.6559 21.9299 57.9539 20.7153C57.2518 19.5008 56.8814 18.1229 56.88 16.72V16C56.88 13.8783 56.0372 11.8434 54.5369 10.3431C53.0366 8.84285 51.0017 8 48.88 8V8Z" stroke="black" stroke-width="8" stroke-linecap="round" stroke-linejoin="round"/>
<path d="M48 60C54.6274 60 60 54.6274 60 48C60 41.3726 54.6274 36 48 36C41.3726 36 36 41.3726 36 48C36 54.6274 41.3726 60 48 60Z" stroke="black" stroke-width="8" stroke-linecap="round" stroke-linejoin="round"/>
</svg>
